<?xml version="1.0" standalone="no"?>
<!DOCTYPE svg PUBLIC "-//W3C//DTD SVG 20010904//EN"
 "http://www.w3.org/TR/2001/REC-SVG-20010904/DTD/svg10.dtd">
<svg version="1.0" xmlns="http://www.w3.org/2000/svg"
 width="200.000000pt" height="200.000000pt" viewBox="0 0 200.000000 200.000000"
 preserveAspectRatio="xMidYMid meet">
<metadata>
Created by potrace 1.11, written by Peter Selinger 2001-2013
</metadata>
<g transform="translate(0.000000,200.000000) scale(0.100000,-0.100000)"
fill="#000000" stroke="none">
<path d="M395 1889 c-137 -31 -253 -151 -285 -294 -6 -29 -10 -257 -10 -608 1
-537 2 -565 21 -621 37 -109 102 -181 209 -234 l55 -27 615 0 615 0 68 34 c70
35 141 103 172 164 44 85 45 96 45 698 0 549 -1 579 -20 635 -26 77 -82 150
-150 196 -99 67 -107 68 -735 67 -308 -1 -578 -5 -600 -10z m1203 -198 c43
-22 73 -53 96 -98 14 -28 16 -96 16 -593 0 -531 -1 -563 -19 -598 -27 -52 -67
-90 -110 -103 -24 -7 -225 -9 -601 -7 l-565 3 -33 23 c-17 13 -44 40 -60 59
l-27 36 -3 561 c-2 382 0 573 8 598 14 50 56 97 105 119 37 17 78 19 598 19
529 0 560 -1 595 -19z"/>
<path d="M677 1477 c-17 -17 -18 -36 -15 -222 2 -112 7 -207 11 -211 4 -5 63
-8 130 -9 l122 0 0 -44 c0 -35 -4 -45 -18 -47 -55 -8 -17 -14 84 -14 71 0 109
4 100 9 -8 5 -20 7 -28 4 -11 -4 -14 5 -11 43 l3 49 117 0 c81 1 122 5 130 13
10 10 13 68 14 217 1 170 -1 207 -14 217 -11 9 -91 13 -311 13 -273 0 -297 -1
-314 -18z m619 -8 c8 -14 8 -395 -1 -409 -4 -6 -112 -10 -306 -10 -275 0 -300
1 -306 17 -9 22 -9 374 0 396 6 15 36 17 306 17 208 0 302 -3 307 -11z m-261
-480 l0 -45 -40 2 c-22 1 -43 2 -46 3 -4 1 -5 83 0 87 0 0 20 0 44 0 l42 -2 0
-45z"/>
<path d="M987 1278 c-44 -107 -62 -169 -35 -124 20 35 89 219 85 229 -2 6 -24
-42 -50 -105z"/>
<path d="M811 1311 c-35 -20 -64 -40 -64 -45 1 -11 134 -89 140 -82 5 5 -30
29 -80 56 -18 10 -32 21 -31 26 1 5 27 23 58 39 31 17 56 33 56 38 0 12 -11 7
-79 -32z"/>
<path d="M1090 1341 c0 -4 17 -16 38 -25 20 -9 48 -25 61 -35 l25 -19 -57 -32
c-52 -29 -78 -50 -62 -50 9 0 145 80 145 85 0 4 -107 67 -132 77 -10 4 -18 4
-18 -1z"/>
<path d="M578 830 c13 -6 31 -6 45 0 18 7 14 9 -23 9 -37 0 -41 -2 -22 -9z"/>
<path d="M683 833 c21 -5 19 4 21 -125 1 -102 0 -108 -19 -108 -14 0 -16 -3
-7 -8 7 -5 27 -6 45 -4 26 4 28 6 12 12 -15 5 -19 16 -20 53 0 46 1 47 30 47
24 0 36 -9 63 -47 28 -42 30 -48 15 -54 -15 -5 -15 -6 3 -10 10 -3 30 -3 44 1
24 6 24 6 4 12 -12 3 -35 26 -52 51 l-32 45 29 10 c29 10 62 52 41 52 -5 0
-10 -6 -10 -13 0 -18 -36 -33 -86 -36 -47 -2 -50 3 -49 69 1 42 3 45 29 48 55
7 95 -7 102 -33 3 -14 10 -25 15 -25 16 0 9 21 -16 45 -22 23 -32 25 -102 24
-43 -1 -70 -3 -60 -6z"/>
<path d="M1023 833 c15 -4 17 -18 17 -119 0 -95 -3 -114 -15 -114 -8 0 -15 -3
-15 -8 0 -4 19 -5 43 -3 26 3 33 6 20 9 -22 3 -23 7 -23 123 0 117 0 119 -22
118 -17 -1 -19 -2 -5 -6z"/>
<path d="M940 804 c0 -8 5 -12 10 -9 6 3 10 10 10 16 0 5 -4 9 -10 9 -5 0 -10
-7 -10 -16z"/>
<path d="M594 785 c0 -28 8 -24 13 5 2 11 -1 20 -5 20 -4 0 -8 -11 -8 -25z"/>
<path d="M930 761 c0 -6 4 -11 9 -11 6 0 8 -9 6 -20 -2 -11 0 -22 6 -25 5 -4
8 8 6 26 -2 29 -27 56 -27 30z"/>
<path d="M1159 764 c-20 -6 -49 -56 -49 -84 0 -28 26 -77 48 -89 25 -13 82 -6
101 14 15 16 14 16 -16 1 -42 -21 -85 -12 -105 22 -18 32 -13 53 10 46 9 -2 7
1 -5 7 -21 11 -21 13 -7 40 25 50 89 50 121 2 16 -24 16 -26 -3 -40 -19 -15
-19 -15 1 -11 26 4 31 39 8 67 -18 21 -72 34 -104 25z"/>
<path d="M1300 759 c0 -5 6 -8 12 -6 15 2 87 -137 87 -168 1 -44 -43 -72 -84
-53 -20 9 -20 9 -1 -6 48 -39 71 -16 127 127 30 77 45 107 55 103 8 -3 14 -1
14 4 0 6 -11 10 -25 10 -15 0 -25 -5 -23 -12 2 -12 -35 -118 -48 -140 -3 -5
-21 22 -39 59 -28 58 -31 70 -18 80 11 9 7 11 -21 11 -20 0 -36 -4 -36 -9z"/>
<path d="M594 700 c-1 -16 1 -30 5 -30 3 0 7 14 7 30 1 17 -1 30 -5 30 -3 0
-7 -13 -7 -30z"/>
<path d="M943 670 c-1 -11 2 -22 6 -25 5 -2 9 7 9 20 0 30 -13 34 -15 5z"/>
<path d="M1170 679 c0 -4 14 -7 30 -7 17 1 30 4 30 8 0 3 -13 6 -30 6 -16 0
-30 -3 -30 -7z"/>
<path d="M590 642 c0 -16 -19 -41 -40 -54 -3 -2 -18 5 -34 15 -29 19 -47 18
-23 -1 21 -18 64 -21 85 -6 20 14 36 64 21 64 -5 0 -9 -8 -9 -18z"/>
<path d="M946 615 c4 -11 -1 -15 -17 -16 l-24 -1 25 -7 c14 -4 34 -5 45 -2 17
5 18 6 3 9 -10 2 -18 10 -18 18 0 8 -4 14 -10 14 -5 0 -7 -7 -4 -15z"/>
</g>
</svg>
